<?xml version="1.0" encoding="utf-8"?>
<svg version="1.1" x="0" y="0" width="372.5" height="211.535" viewBox="0, 0, 372.5, 211.535" xmlns="http://www.w3.org/2000/svg">
  <g style="" transform="matrix(0.311951, 0.000467, -0.000493, 0.329473, 11.367499, 81.762978)">
    <path style="opacity:0.992" fill="#efeeee" d="M 410.5,151.5 C 401.494,151.334 392.494,151.5 383.5,152C 380.651,154.559 379.817,157.726 381,161.5C 386.179,171.194 391.346,180.86 396.5,190.5C 399.732,197.298 403.232,203.964 407,210.5C 408.731,212.617 410.898,214.117 413.5,215C 425.162,215.5 436.829,215.667 448.5,215.5C 466.076,227.897 484.076,239.73 502.5,251C 506.652,254.826 509.652,259.326 511.5,264.5C 511.5,266.833 511.5,269.167 511.5,271.5C 482.674,265.326 471.008,276.66 476.5,305.5C 471.167,305.5 465.833,305.5 460.5,305.5C 460.167,305.5 459.833,305.5 459.5,305.5C 447.692,287.507 430.858,278.507 409,278.5C 388.738,279.712 372.572,288.378 360.5,304.5C 328.493,304.833 296.493,304.5 264.5,303.5C 265.127,302.583 265.461,301.583 265.5,300.5C 265.5,298.5 265.5,296.5 265.5,294.5C 265.833,294.5 266.167,294.5 266.5,294.5C 267.82,291.572 268.486,288.239 268.5,284.5C 268.498,280.982 268.165,277.649 267.5,274.5C 266.566,273.432 266.232,272.099 266.5,270.5C 266.369,266.715 265.702,263.048 264.5,259.5C 288.961,258.72 313.294,260.053 337.5,263.5C 345.502,261.754 347.668,257.088 344,249.5C 343.097,248.299 341.931,247.465 340.5,247C 335.749,246.811 331.083,246.145 326.5,245C 302.501,244.146 278.501,243.313 254.5,242.5C 253.423,241.295 252.09,240.628 250.5,240.5C 246.407,236.071 241.741,232.404 236.5,229.5C 234.329,227.524 231.995,225.691 229.5,224C 225.367,222.137 221.033,221.304 216.5,221.5C 215.791,220.596 214.791,220.263 213.5,220.5C 195.919,220.062 179.919,224.896 165.5,235C 162.631,238.038 159.631,240.871 156.5,243.5C 126.831,243.333 97.1648,243.5 67.5,244C 62.1667,249 62.1667,254 67.5,259C 93.8333,259.333 120.167,259.667 146.5,260C 144.083,264.451 143.083,269.285 143.5,274.5C 143.41,283.247 144.077,291.914 145.5,300.5C 145.5,301.833 145.5,303.167 145.5,304.5C 143.5,304.5 141.5,304.5 139.5,304.5C 117.118,277.656 90.1177,271.823 58.5,287C 50.9329,291.733 44.9329,297.899 40.5,305.5C 40.1667,305.5 39.8333,305.5 39.5,305.5C 34.8215,305.666 30.1548,305.499 25.5,305C 26.6956,304.346 26.6956,303.846 25.5,303.5C 17.0326,305.43 8.36596,306.097 -0.5,305.5C -0.5,298.167 -0.5,290.833 -0.5,283.5C 9.2471,283.92 18.9138,283.42 28.5,282C 31.1353,280.039 32.9686,277.539 34,274.5C 34.6667,264.167 34.6667,253.833 34,243.5C 32.8333,239.667 30.3333,237.167 26.5,236C 17.5062,235.5 8.50617,235.334 -0.5,235.5C -0.5,228.833 -0.5,222.167 -0.5,215.5C 15.8333,215.5 32.1667,215.5 48.5,215.5C 122.335,215.833 196.002,215.499 269.5,214.5C 273.833,213.5 276.5,210.833 277.5,206.5C 278.661,191.339 278.828,176.006 278,160.5C 276.939,157.438 275.106,154.938 272.5,153C 254.569,151.54 236.569,151.04 218.5,151.5C 206.167,151.5 193.833,151.5 181.5,151.5C 176.167,151.5 170.833,151.5 165.5,151.5C 143.167,151.5 120.833,151.5 98.5,151.5C 81.5,151.5 64.5,151.5 47.5,151.5C 31.5,151.5 15.5,151.5 -0.5,151.5C -0.5,145.5 -0.5,139.5 -0.5,133.5C 2.46914,127.706 7.13581,123.873 13.5,122C 135.5,121.333 257.5,121.333 379.5,122C 388.383,123.217 395.55,127.384 401,134.5C 404.686,139.871 407.852,145.538 410.5,151.5 Z"/>
  </g>
  <g style="" transform="matrix(0.311951, 0.000467, -0.000493, 0.329473, 11.367499, 81.762978)">
    <path style="opacity:1" fill="#46515b" d="M 47.5,151.5 C 64.5,151.5 81.5,151.5 98.5,151.5C 98.5,160.5 98.5,169.5 98.5,178.5C 98.5,178.833 98.5,179.167 98.5,179.5C 86.7015,190.798 75.0349,202.298 63.5,214C 75.1619,214.5 86.8286,214.667 98.5,214.5C 104.167,214.5 109.833,214.5 115.5,214.5C 137.5,214.5 159.5,214.5 181.5,214.5C 200.833,214.5 220.167,214.5 239.5,214.5C 249.5,214.5 259.5,214.5 269.5,214.5C 196.002,215.499 122.335,215.833 48.5,215.5C 44.5212,213.685 41.6878,210.685 40,206.5C 39.3333,190.833 39.3333,175.167 40,159.5C 42.0282,156.308 44.5282,153.641 47.5,151.5 Z"/>
  </g>
  <g style="" transform="matrix(0.311951, 0.000467, -0.000493, 0.329473, 11.367499, 81.762978)">
    <path style="opacity:1" fill="#343e48" d="M 98.5,151.5 C 120.833,151.5 143.167,151.5 165.5,151.5C 165.333,169.17 165.5,186.836 166,204.5C 171.035,199.297 176.202,194.297 181.5,189.5C 181.5,197.833 181.5,206.167 181.5,214.5C 159.5,214.5 137.5,214.5 115.5,214.5C 115.667,197.163 115.5,179.83 115,162.5C 109.631,168.036 104.131,173.37 98.5,178.5C 98.5,169.5 98.5,160.5 98.5,151.5 Z"/>
  </g>
  <g style="" transform="matrix(0.311951, 0.000467, -0.000493, 0.329473, 11.367499, 81.762978)">
    <path style="opacity:1" fill="#29323a" d="M 165.5,151.5 C 170.833,151.5 176.167,151.5 181.5,151.5C 181.5,163.833 181.5,176.167 181.5,188.5C 181.5,188.833 181.5,189.167 181.5,189.5C 176.202,194.297 171.035,199.297 166,204.5C 165.5,186.836 165.333,169.17 165.5,151.5 Z"/>
  </g>
  <g style="" transform="matrix(0.311951, 0.000467, -0.000493, 0.329473, 11.367499, 81.762978)">
    <path style="opacity:1" fill="#333e48" d="M 181.5,151.5 C 193.833,151.5 206.167,151.5 218.5,151.5C 206.5,164.167 194.167,176.5 181.5,188.5C 181.5,176.167 181.5,163.833 181.5,151.5 Z"/>
  </g>
  <g style="" transform="matrix(0.311951, 0.000467, -0.000493, 0.329473, 11.367499, 81.762978)">
    <path style="opacity:1" fill="#47515a" d="M 218.5,151.5 C 236.569,151.04 254.569,151.54 272.5,153C 275.106,154.938 276.939,157.438 278,160.5C 278.828,176.006 278.661,191.339 277.5,206.5C 277.666,196.494 277.5,186.494 277,176.5C 264.298,189.035 251.798,201.702 239.5,214.5C 220.167,214.5 200.833,214.5 181.5,214.5C 181.5,206.167 181.5,197.833 181.5,189.5C 181.5,189.167 181.5,188.833 181.5,188.5C 194.167,176.5 206.5,164.167 218.5,151.5 Z"/>
  </g>
  <g style="" transform="matrix(0.311951, 0.000467, -0.000493, 0.329473, 11.367499, 81.762978)">
    <path style="opacity:1" fill="#333e48" d="M 340.5,151.5 C 329.833,162.833 318.833,173.833 307.5,184.5C 307.334,174.828 307.5,165.161 308,155.5C 309.167,154.333 310.333,153.167 311.5,152C 321.161,151.5 330.828,151.334 340.5,151.5 Z"/>
  </g>
  <g style="" transform="matrix(0.311951, 0.000467, -0.000493, 0.329473, 11.367499, 81.762978)">
    <path style="opacity:1" fill="#47515a" d="M 340.5,151.5 C 344.308,151.163 347.974,151.663 351.5,153C 355.812,159.122 359.478,165.622 362.5,172.5C 361.761,172.369 361.094,172.536 360.5,173C 346.831,186.335 333.498,200.002 320.5,214C 331.828,214.5 343.162,214.667 354.5,214.5C 354.5,214.833 354.5,215.167 354.5,215.5C 352.5,215.5 350.5,215.5 348.5,215.5C 335.734,215.961 323.067,215.461 310.5,214C 309.667,213.167 308.833,212.333 308,211.5C 307.5,202.506 307.334,193.506 307.5,184.5C 318.833,173.833 329.833,162.833 340.5,151.5 Z"/>
  </g>
  <g style="" transform="matrix(0.311951, 0.000467, -0.000493, 0.329473, 11.367499, 81.762978)">
    <path style="opacity:1" fill="#343f49" d="M 410.5,151.5 C 413.927,156.016 416.593,161.016 418.5,166.5C 418.649,167.552 418.483,168.552 418,169.5C 410.965,176.703 403.798,183.703 396.5,190.5C 391.346,180.86 386.179,171.194 381,161.5C 379.817,157.726 380.651,154.559 383.5,152C 392.494,151.5 401.494,151.334 410.5,151.5 Z"/>
  </g>
  <g style="" transform="matrix(0.311951, 0.000467, -0.000493, 0.329473, 11.367499, 81.762978)">
    <path style="opacity:1" fill="#0f7ed3" d="M -0.5,151.5 C 15.5,151.5 31.5,151.5 47.5,151.5C 44.5282,153.641 42.0282,156.308 40,159.5C 39.3333,175.167 39.3333,190.833 40,206.5C 41.6878,210.685 44.5212,213.685 48.5,215.5C 32.1667,215.5 15.8333,215.5 -0.5,215.5C -0.5,194.167 -0.5,172.833 -0.5,151.5 Z"/>
  </g>
  <g style="" transform="matrix(0.311951, 0.000467, -0.000493, 0.329473, 11.367499, 81.762978)">
    <path style="opacity:1" fill="#29323a" d="M 115.5,214.5 C 109.833,214.5 104.167,214.5 98.5,214.5C 98.5,202.833 98.5,191.167 98.5,179.5C 98.5,179.167 98.5,178.833 98.5,178.5C 104.131,173.37 109.631,168.036 115,162.5C 115.5,179.83 115.667,197.163 115.5,214.5 Z"/>
  </g>
  <g style="" transform="matrix(0.311951, 0.000467, -0.000493, 0.329473, 11.367499, 81.762978)">
    <path style="opacity:1" fill="#48515a" d="M 418.5,166.5 C 426.478,179.11 433.978,192.11 441,205.5C 443.717,208.71 446.217,212.044 448.5,215.5C 436.829,215.667 425.162,215.5 413.5,215C 410.898,214.117 408.731,212.617 407,210.5C 403.232,203.964 399.732,197.298 396.5,190.5C 403.798,183.703 410.965,176.703 418,169.5C 418.483,168.552 418.649,167.552 418.5,166.5 Z"/>
  </g>
  <g style="" transform="matrix(0.311951, 0.000467, -0.000493, 0.329473, 11.367499, 81.762978)">
    <path style="opacity:1" fill="#333e48" d="M 362.5,172.5 C 366.755,180.009 370.755,187.676 374.5,195.5C 358.617,192.386 351.95,198.72 354.5,214.5C 343.162,214.667 331.828,214.5 320.5,214C 333.498,200.002 346.831,186.335 360.5,173C 361.094,172.536 361.761,172.369 362.5,172.5 Z"/>
  </g>
  <g style="" transform="matrix(0.311951, 0.000467, -0.000493, 0.329473, 11.367499, 81.762978)">
    <path style="opacity:1" fill="#333e48" d="M 277.5,206.5 C 276.5,210.833 273.833,213.5 269.5,214.5C 259.5,214.5 249.5,214.5 239.5,214.5C 251.798,201.702 264.298,189.035 277,176.5C 277.5,186.494 277.666,196.494 277.5,206.5 Z"/>
  </g>
  <g style="" transform="matrix(0.311951, 0.000467, -0.000493, 0.329473, 11.367499, 81.762978)">
    <path style="opacity:1" fill="#333e48" d="M 98.5,179.5 C 98.5,191.167 98.5,202.833 98.5,214.5C 86.8286,214.667 75.1619,214.5 63.5,214C 75.0349,202.298 86.7015,190.798 98.5,179.5 Z"/>
  </g>
  <g style="" transform="matrix(0.311951, 0.000467, -0.000493, 0.329473, 11.367499, 81.762978)">
    <path style="opacity:1" fill="#c1c4c7" d="M 374.5,195.5 C 377.075,196.568 379.242,198.235 381,200.5C 381.5,210.494 381.666,220.494 381.5,230.5C 380.711,230.783 380.044,231.283 379.5,232C 372.5,232.667 365.5,232.667 358.5,232C 356.951,230.786 355.785,229.286 355,227.5C 354.501,223.514 354.334,219.514 354.5,215.5C 354.5,215.167 354.5,214.833 354.5,214.5C 351.95,198.72 358.617,192.386 374.5,195.5 Z"/>
  </g>
  <g style="" transform="matrix(0.311951, 0.000467, -0.000493, 0.329473, 11.367499, 81.762978)">
    <path style="opacity:1" fill="#dddcdc" d="M 348.5,215.5 C 350.5,215.5 352.5,215.5 354.5,215.5C 354.334,219.514 354.501,223.514 355,227.5C 355.785,229.286 356.951,230.786 358.5,232C 365.5,232.667 372.5,232.667 379.5,232C 380.044,231.283 380.711,230.783 381.5,230.5C 380.817,234.02 378.817,236.52 375.5,238C 368.167,238.667 360.833,238.667 353.5,238C 351.622,236.457 350.122,234.624 349,232.5C 348.501,226.843 348.334,221.176 348.5,215.5 Z"/>
  </g>
  <g style="" transform="matrix(0.311951, 0.000467, -0.000493, 0.329473, 11.367499, 81.762978)">
    <path style="opacity:1" fill="#f27842" d="M 213.5,220.5 C 213.414,221.496 213.748,222.329 214.5,223C 219.238,223.591 223.905,224.425 228.5,225.5C 230.942,227.126 233.609,228.459 236.5,229.5C 241.741,232.404 246.407,236.071 250.5,240.5C 256.128,246.767 260.461,253.767 263.5,261.5C 261.228,260.277 260.061,258.277 260,255.5C 259.667,257.5 259.333,259.5 259,261.5C 254.263,260.531 249.43,260.197 244.5,260.5C 244.5,261.5 244.5,262.5 244.5,263.5C 241.582,258.888 238.582,254.222 235.5,249.5C 233.102,246.801 230.102,245.467 226.5,245.5C 225.5,244.833 224.5,244.167 223.5,243.5C 222.551,242.848 221.385,242.514 220,242.5C 217.779,242.393 215.946,243.06 214.5,244.5C 210.642,244.77 207.309,246.103 204.5,248.5C 197.58,249.951 190.58,250.951 183.5,251.5C 179.761,251.486 176.428,250.82 173.5,249.5C 177.335,248.342 180.335,246.009 182.5,242.5C 183.767,239.728 183.767,237.061 182.5,234.5C 181.713,232.896 180.38,232.229 178.5,232.5C 178.337,234.857 178.503,237.19 179,239.5C 179.383,240.056 179.883,240.389 180.5,240.5C 180.5,240.833 180.5,241.167 180.5,241.5C 175.684,244.737 170.851,248.07 166,251.5C 165.505,253.473 165.338,255.473 165.5,257.5C 161.265,256.564 156.931,256.231 152.5,256.5C 152.649,255.448 152.483,254.448 152,253.5C 151.768,254.737 151.268,255.737 150.5,256.5C 150.343,255.127 150.51,253.793 151,252.5C 153.358,249.778 155.191,246.778 156.5,243.5C 159.631,240.871 162.631,238.038 165.5,235C 179.919,224.896 195.919,220.062 213.5,220.5 Z"/>
  </g>
  <g style="" transform="matrix(0.311951, 0.000467, -0.000493, 0.329473, 11.367499, 81.762978)">
    <path style="opacity:1" fill="#f4d9cd" d="M 216.5,221.5 C 221.033,221.304 225.367,222.137 229.5,224C 231.995,225.691 234.329,227.524 236.5,229.5C 233.609,228.459 230.942,227.126 228.5,225.5C 224.688,223.548 220.688,222.215 216.5,221.5 Z"/>
  </g>
  <g style="" transform="matrix(0.311951, 0.000467, -0.000493, 0.329473, 11.367499, 81.762978)">
    <path style="opacity:1" fill="#f5a987" d="M 213.5,220.5 C 214.791,220.263 215.791,220.596 216.5,221.5C 220.688,222.215 224.688,223.548 228.5,225.5C 223.905,224.425 219.238,223.591 214.5,223C 213.748,222.329 213.414,221.496 213.5,220.5 Z"/>
  </g>
  <g style="" transform="matrix(0.311951, 0.000467, -0.000493, 0.329473, 11.367499, 81.762978)">
    <path style="opacity:1" fill="#58c9e8" d="M -0.5,235.5 C 8.50617,235.334 17.5062,235.5 26.5,236C 30.3333,237.167 32.8333,239.667 34,243.5C 34.6667,253.833 34.6667,264.167 34,274.5C 32.9686,277.539 31.1353,280.039 28.5,282C 18.9138,283.42 9.2471,283.92 -0.5,283.5C -0.5,267.5 -0.5,251.5 -0.5,235.5 Z"/>
  </g>
  <g style="" transform="matrix(0.311951, 0.000467, -0.000493, 0.329473, 11.367499, 81.762978)">
    <path style="opacity:1" fill="#b46c41" d="M 182.5,234.5 C 180.692,235.918 180.025,237.918 180.5,240.5C 179.883,240.389 179.383,240.056 179,239.5C 178.503,237.19 178.337,234.857 178.5,232.5C 180.38,232.229 181.713,232.896 182.5,234.5 Z"/>
  </g>
  <g style="" transform="matrix(0.311951, 0.000467, -0.000493, 0.329473, 11.367499, 81.762978)">
    <path style="opacity:1" fill="#48573f" d="M 182.5,234.5 C 183.767,237.061 183.767,239.728 182.5,242.5C 181.833,242.167 181.167,241.833 180.5,241.5C 180.5,241.167 180.5,240.833 180.5,240.5C 180.025,237.918 180.692,235.918 182.5,234.5 Z"/>
  </g>
  <g style="" transform="matrix(0.311951, 0.000467, -0.000493, 0.329473, 11.367499, 81.762978)">
    <path style="opacity:1" fill="#dddbdb" d="M 156.5,243.5 C 155.191,246.778 153.358,249.778 151,252.5C 150.51,253.793 150.343,255.127 150.5,256.5C 147.361,259.669 145.695,263.669 145.5,268.5C 144.833,270.5 144.167,272.5 143.5,274.5C 143.083,269.285 144.083,264.451 146.5,260C 120.167,259.667 93.8333,259.333 67.5,259C 62.1667,254 62.1667,249 67.5,244C 97.1648,243.5 126.831,243.333 156.5,243.5 Z"/>
  </g>
  <g style="" transform="matrix(0.311951, 0.000467, -0.000493, 0.329473, 11.367499, 81.762978)">
    <path style="opacity:1" fill="#9f6840" d="M 223.5,243.5 C 220.482,243.704 217.482,244.037 214.5,244.5C 215.946,243.06 217.779,242.393 220,242.5C 221.385,242.514 222.551,242.848 223.5,243.5 Z"/>
  </g>
  <g style="" transform="matrix(0.311951, 0.000467, -0.000493, 0.329473, 11.367499, 81.762978)">
    <path style="opacity:1" fill="#dddbdb" d="M 250.5,240.5 C 252.09,240.628 253.423,241.295 254.5,242.5C 278.501,243.313 302.501,244.146 326.5,245C 331.083,246.145 335.749,246.811 340.5,247C 341.931,247.465 343.097,248.299 344,249.5C 347.668,257.088 345.502,261.754 337.5,263.5C 313.294,260.053 288.961,258.72 264.5,259.5C 265.702,263.048 266.369,266.715 266.5,270.5C 265.525,267.575 264.525,264.575 263.5,261.5C 260.461,253.767 256.128,246.767 250.5,240.5 Z"/>
  </g>
  <g style="" transform="matrix(0.311951, 0.000467, -0.000493, 0.329473, 11.367499, 81.762978)">
    <path style="opacity:1" fill="#5f5b3f" d="M 223.5,243.5 C 224.5,244.167 225.5,244.833 226.5,245.5C 218.91,244.897 211.577,245.897 204.5,248.5C 207.309,246.103 210.642,244.77 214.5,244.5C 217.482,244.037 220.482,243.704 223.5,243.5 Z"/>
  </g>
  <g style="" transform="matrix(0.311951, 0.000467, -0.000493, 0.329473, 11.367499, 81.762978)">
    <path style="opacity:1" fill="#83623f" d="M 180.5,241.5 C 181.167,241.833 181.833,242.167 182.5,242.5C 180.335,246.009 177.335,248.342 173.5,249.5C 171.539,250.46 169.873,251.793 168.5,253.5C 166.902,255.857 165.902,258.523 165.5,261.5C 165.5,260.167 165.5,258.833 165.5,257.5C 165.338,255.473 165.505,253.473 166,251.5C 170.851,248.07 175.684,244.737 180.5,241.5 Z"/>
  </g>
  <g style="" transform="matrix(0.311951, 0.000467, -0.000493, 0.329473, 11.367499, 81.762978)">
    <path style="opacity:1" fill="#26503e" d="M 226.5,245.5 C 230.102,245.467 233.102,246.801 235.5,249.5C 238.582,254.222 241.582,258.888 244.5,263.5C 245.11,264.391 245.443,265.391 245.5,266.5C 246.932,270.443 247.932,274.443 248.5,278.5C 249.338,278.842 249.672,279.508 249.5,280.5C 249.737,281.791 249.404,282.791 248.5,283.5C 247.185,282.524 245.852,281.524 244.5,280.5C 243.575,281.357 242.908,282.357 242.5,283.5C 240.152,283.592 238.486,284.592 237.5,286.5C 236.833,286.5 236.5,286.833 236.5,287.5C 234.167,290.167 231.833,290.167 229.5,287.5C 229.48,283.413 229.647,279.413 230,275.5C 228.583,276.078 227.75,277.078 227.5,278.5C 224.218,281.601 223.884,284.935 226.5,288.5C 224.365,290.369 221.698,291.036 218.5,290.5C 218.82,293.898 218.487,297.232 217.5,300.5C 216.817,300.137 216.15,299.804 215.5,299.5C 215.5,297.167 215.5,294.833 215.5,292.5C 214.167,292.5 212.833,292.5 211.5,292.5C 210.833,292.5 210.5,292.167 210.5,291.5C 209.15,290.176 209.317,289.176 211,288.5C 213.099,289.287 215.266,289.62 217.5,289.5C 217.43,286.341 215.763,284.674 212.5,284.5C 212.167,283.833 211.833,283.167 211.5,282.5C 211.506,279.452 210.506,278.952 208.5,281C 204.312,281.176 200.312,281.676 196.5,282.5C 196.167,283.833 195.833,285.167 195.5,286.5C 194.371,288.628 194.204,290.961 195,293.5C 196.666,295.996 198.5,298.329 200.5,300.5C 199.432,301.434 198.099,301.768 196.5,301.5C 196.068,300.29 195.401,299.29 194.5,298.5C 193.627,296.114 192.127,294.114 190,292.5C 188.517,287.843 185.684,284.177 181.5,281.5C 183.111,279.905 185.111,278.739 187.5,278C 185.351,277.421 183.185,276.921 181,276.5C 179.624,276.684 178.791,277.351 178.5,278.5C 176.5,279.833 174.833,281.5 173.5,283.5C 170.796,283.67 169.129,285.003 168.5,287.5C 168.5,287.833 168.5,288.167 168.5,288.5C 166.547,289.905 165.547,289.239 165.5,286.5C 165.728,284.793 166.062,283.126 166.5,281.5C 165.201,274.92 164.534,268.253 164.5,261.5C 164.833,261.5 165.167,261.5 165.5,261.5C 165.902,258.523 166.902,255.857 168.5,253.5C 168.821,255.048 169.821,255.715 171.5,255.5C 178.2,255.83 184.866,255.497 191.5,254.5C 193.975,254.036 195.975,253.036 197.5,251.5C 200.018,250.736 202.351,249.736 204.5,248.5C 211.577,245.897 218.91,244.897 226.5,245.5 Z"/>
  </g>
  <g style="" transform="matrix(0.311951, 0.000467, -0.000493, 0.329473, 11.367499, 81.762978)">
    <path style="opacity:1" fill="#da7241" d="M 204.5,248.5 C 202.351,249.736 200.018,250.736 197.5,251.5C 188.827,253.57 180.16,254.903 171.5,255.5C 169.821,255.715 168.821,255.048 168.5,253.5C 169.873,251.793 171.539,250.46 173.5,249.5C 176.428,250.82 179.761,251.486 183.5,251.5C 190.58,250.951 197.58,249.951 204.5,248.5 Z"/>
  </g>
  <g style="" transform="matrix(0.311951, 0.000467, -0.000493, 0.329473, 11.367499, 81.762978)">
    <path style="opacity:1" fill="#645b3f" d="M 197.5,251.5 C 195.975,253.036 193.975,254.036 191.5,254.5C 184.866,255.497 178.2,255.83 171.5,255.5C 180.16,254.903 188.827,253.57 197.5,251.5 Z"/>
  </g>
  <g style="" transform="matrix(0.311951, 0.000467, -0.000493, 0.329473, 11.367499, 81.762978)">
    <path style="opacity:1" fill="#f1653f" d="M 263.5,261.5 C 264.525,264.575 265.525,267.575 266.5,270.5C 266.232,272.099 266.566,273.432 267.5,274.5C 267.713,281.211 267.38,287.877 266.5,294.5C 266.167,294.5 265.833,294.5 265.5,294.5C 266.783,285.098 266.283,275.765 264,266.5C 263.517,267.448 263.351,268.448 263.5,269.5C 259.154,269.666 254.821,269.499 250.5,269C 249.744,267.62 249.078,267.453 248.5,268.5C 247.5,267.833 246.5,267.167 245.5,266.5C 245.443,265.391 245.11,264.391 244.5,263.5C 244.5,262.5 244.5,261.5 244.5,260.5C 249.43,260.197 254.263,260.531 259,261.5C 259.333,259.5 259.667,257.5 260,255.5C 260.061,258.277 261.228,260.277 263.5,261.5 Z"/>
  </g>
  <g style="" transform="matrix(0.311951, 0.000467, -0.000493, 0.329473, 11.367499, 81.762978)">
    <path style="opacity:1" fill="#f26a40" d="M 165.5,257.5 C 165.5,258.833 165.5,260.167 165.5,261.5C 165.167,261.5 164.833,261.5 164.5,261.5C 164.167,261.5 163.833,261.5 163.5,261.5C 162.069,262.78 161.402,264.447 161.5,266.5C 157.486,266.666 153.486,266.499 149.5,266C 148.874,265.25 148.374,264.416 148,263.5C 147.95,265.744 147.117,267.411 145.5,268.5C 145.695,263.669 147.361,259.669 150.5,256.5C 151.268,255.737 151.768,254.737 152,253.5C 152.483,254.448 152.649,255.448 152.5,256.5C 156.931,256.231 161.265,256.564 165.5,257.5 Z"/>
  </g>
  <g style="" transform="matrix(0.311951, 0.000467, -0.000493, 0.329473, 11.367499, 81.762978)">
    <path style="opacity:1" fill="#ef563a" d="M 163.5,261.5 C 163.287,268.279 163.953,274.946 165.5,281.5C 163.732,284.162 163.065,287.162 163.5,290.5C 162.883,290.389 162.383,290.056 162,289.5C 161.667,287.5 161.333,285.5 161,283.5C 160.5,284 160,284.5 159.5,285C 155.245,285.796 151.079,285.629 147,284.5C 146.722,285.416 146.222,286.082 145.5,286.5C 145.5,280.5 145.5,274.5 145.5,268.5C 147.117,267.411 147.95,265.744 148,263.5C 148.374,264.416 148.874,265.25 149.5,266C 153.486,266.499 157.486,266.666 161.5,266.5C 161.402,264.447 162.069,262.78 163.5,261.5 Z"/>
  </g>
  <g style="" transform="matrix(0.311951, 0.000467, -0.000493, 0.329473, 11.367499, 81.762978)">
    <path style="opacity:1" fill="#9b563d" d="M 245.5,266.5 C 246.5,267.167 247.5,267.833 248.5,268.5C 248.5,271.833 248.5,275.167 248.5,278.5C 247.932,274.443 246.932,270.443 245.5,266.5 Z"/>
  </g>
  <g style="" transform="matrix(0.311951, 0.000467, -0.000493, 0.329473, 11.367499, 81.762978)">
    <path style="opacity:1" fill="#58c9e8" d="M 511.5,271.5 C 511.5,282.833 511.5,294.167 511.5,305.5C 499.833,305.5 488.167,305.5 476.5,305.5C 471.008,276.66 482.674,265.326 511.5,271.5 Z"/>
  </g>
  <g style="" transform="matrix(0.311951, 0.000467, -0.000493, 0.329473, 11.367499, 81.762978)">
    <path style="opacity:1" fill="#bd573b" d="M 163.5,261.5 C 163.833,261.5 164.167,261.5 164.5,261.5C 164.534,268.253 165.201,274.92 166.5,281.5C 166.167,281.5 165.833,281.5 165.5,281.5C 163.953,274.946 163.287,268.279 163.5,261.5 Z"/>
  </g>
  <g style="" transform="matrix(0.311951, 0.000467, -0.000493, 0.329473, 11.367499, 81.762978)">
    <path style="opacity:1" fill="#74503c" d="M 181.5,281.5 C 180.9,280.1 179.9,279.1 178.5,278.5C 178.791,277.351 179.624,276.684 181,276.5C 183.185,276.921 185.351,277.421 187.5,278C 185.111,278.739 183.111,279.905 181.5,281.5 Z"/>
  </g>
  <g style="" transform="matrix(0.311951, 0.000467, -0.000493, 0.329473, 11.367499, 81.762978)">
    <path style="opacity:1" fill="#dbdada" d="M 139.5,304.5 C 139.5,304.833 139.5,305.167 139.5,305.5C 136.167,305.5 132.833,305.5 129.5,305.5C 102.803,280.214 76.1365,280.214 49.5,305.5C 46.5,305.5 43.5,305.5 40.5,305.5C 44.9329,297.899 50.9329,291.733 58.5,287C 90.1177,271.823 117.118,277.656 139.5,304.5 Z"/>
  </g>
  <g style="" transform="matrix(0.311951, 0.000467, -0.000493, 0.329473, 11.367499, 81.762978)">
    <path style="opacity:1" fill="#dbdada" d="M 459.5,305.5 C 456.5,305.5 453.5,305.5 450.5,305.5C 429.05,283.707 405.383,280.873 379.5,297C 376.001,299.396 373.001,302.229 370.5,305.5C 367.167,305.5 363.833,305.5 360.5,305.5C 360.5,305.167 360.5,304.833 360.5,304.5C 372.572,288.378 388.738,279.712 409,278.5C 430.858,278.507 447.692,287.507 459.5,305.5 Z"/>
  </g>
  <g style="" transform="matrix(0.311951, 0.000467, -0.000493, 0.329473, 11.367499, 81.762978)">
    <path style="opacity:1" fill="#b34d3a" d="M 229.5,287.5 C 228.833,284.5 228.167,281.5 227.5,278.5C 227.75,277.078 228.583,276.078 230,275.5C 229.647,279.413 229.48,283.413 229.5,287.5 Z"/>
  </g>
  <g style="" transform="matrix(0.311951, 0.000467, -0.000493, 0.329473, 11.367499, 81.762978)">
    <path style="opacity:1" fill="#684e3c" d="M 211.5,282.5 C 210.5,281.167 209.5,281.167 208.5,282.5C 204.5,282.5 200.5,282.5 196.5,282.5C 200.312,281.676 204.312,281.176 208.5,281C 210.506,278.952 211.506,279.452 211.5,282.5 Z"/>
  </g>
  <g style="" transform="matrix(0.311951, 0.000467, -0.000493, 0.329473, 11.367499, 81.762978)">
    <path style="opacity:1" fill="#f16b5e" d="M 145.5,268.5 C 145.5,274.5 145.5,280.5 145.5,286.5C 145.353,291.214 145.686,295.881 146.5,300.5C 146.167,300.5 145.833,300.5 145.5,300.5C 144.077,291.914 143.41,283.247 143.5,274.5C 144.167,272.5 144.833,270.5 145.5,268.5 Z"/>
  </g>
  <g style="" transform="matrix(0.311951, 0.000467, -0.000493, 0.329473, 11.367499, 81.762978)">
    <path style="opacity:1" fill="#ed4c3a" d="M 265.5,294.5 C 265.5,296.5 265.5,298.5 265.5,300.5C 265.167,300.5 264.833,300.5 264.5,300.5C 264.5,296.167 264.5,291.833 264.5,287.5C 255.78,286.806 247.114,286.473 238.5,286.5C 240.076,285.857 241.41,284.857 242.5,283.5C 242.908,282.357 243.575,281.357 244.5,280.5C 245.852,281.524 247.185,282.524 248.5,283.5C 249.14,285.332 250.14,285.665 251.5,284.5C 251.006,282.974 250.339,281.641 249.5,280.5C 249.672,279.508 249.338,278.842 248.5,278.5C 248.5,275.167 248.5,271.833 248.5,268.5C 249.078,267.453 249.744,267.62 250.5,269C 254.821,269.499 259.154,269.666 263.5,269.5C 263.351,268.448 263.517,267.448 264,266.5C 266.283,275.765 266.783,285.098 265.5,294.5 Z"/>
  </g>
  <g style="" transform="matrix(0.311951, 0.000467, -0.000493, 0.329473, 11.367499, 81.762978)">
    <path style="opacity:1" fill="#7b4c3c" d="M 249.5,280.5 C 250.339,281.641 251.006,282.974 251.5,284.5C 250.14,285.665 249.14,285.332 248.5,283.5C 249.404,282.791 249.737,281.791 249.5,280.5 Z"/>
  </g>
  <g style="" transform="matrix(0.311951, 0.000467, -0.000493, 0.329473, 11.367499, 81.762978)">
    <path style="opacity:1" fill="#864a3b" d="M 173.5,283.5 C 172.055,285.063 170.389,286.396 168.5,287.5C 169.129,285.003 170.796,283.67 173.5,283.5 Z"/>
  </g>
  <g style="" transform="matrix(0.311951, 0.000467, -0.000493, 0.329473, 11.367499, 81.762978)">
    <path style="opacity:1" fill="#904a3b" d="M 242.5,283.5 C 241.41,284.857 240.076,285.857 238.5,286.5C 238.167,286.5 237.833,286.5 237.5,286.5C 238.486,284.592 240.152,283.592 242.5,283.5 Z"/>
  </g>
  <g style="" transform="matrix(0.311951, 0.000467, -0.000493, 0.329473, 11.367499, 81.762978)">
    <path style="opacity:1" fill="#b1493a" d="M 196.5,282.5 C 200.5,282.5 204.5,282.5 208.5,282.5C 205.038,283.482 201.371,283.815 197.5,283.5C 197.715,285.179 197.048,286.179 195.5,286.5C 195.833,285.167 196.167,283.833 196.5,282.5 Z"/>
  </g>
  <g style="" transform="matrix(0.311951, 0.000467, -0.000493, 0.329473, 11.367499, 81.762978)">
    <path style="opacity:1" fill="#c3453a" d="M 212.5,284.5 C 215.763,284.674 217.43,286.341 217.5,289.5C 215.266,289.62 213.099,289.287 211,288.5C 209.317,289.176 209.15,290.176 210.5,291.5C 208.744,290.448 208.077,288.781 208.5,286.5C 210.483,286.843 211.817,286.176 212.5,284.5 Z"/>
  </g>
  <g style="" transform="matrix(0.311951, 0.000467, -0.000493, 0.329473, 11.367499, 81.762978)">
    <path style="opacity:1" fill="#b94a3a" d="M 227.5,278.5 C 226.481,281.872 226.481,285.206 227.5,288.5C 227.167,288.5 226.833,288.5 226.5,288.5C 223.884,284.935 224.218,281.601 227.5,278.5 Z"/>
  </g>
  <g style="" transform="matrix(0.311951, 0.000467, -0.000493, 0.329473, 11.367499, 81.762978)">
    <path style="opacity:0.994" fill="#333e48" d="M 129.5,305.5 C 136.694,315.421 140.694,326.421 141.5,338.5C 138.052,369.614 120.719,386.614 89.5,389.5C 58.1014,386.768 41.1014,369.768 38.5,338.5C 38.5,338.167 38.5,337.833 38.5,337.5C 38.7761,325.626 42.4428,314.959 49.5,305.5C 76.1365,280.214 102.803,280.214 129.5,305.5 Z"/>
  </g>
  <g style="" transform="matrix(0.311951, 0.000467, -0.000493, 0.329473, 11.367499, 81.762978)">
    <path style="opacity:0.994" fill="#333e48" d="M 450.5,305.5 C 457.339,315.017 461.006,325.683 461.5,337.5C 461.5,337.833 461.5,338.167 461.5,338.5C 458.867,369.8 441.867,386.8 410.5,389.5C 379.296,386.629 361.963,369.629 358.5,338.5C 358.906,326.29 362.906,315.29 370.5,305.5C 373.001,302.229 376.001,299.396 379.5,297C 405.383,280.873 429.05,283.707 450.5,305.5 Z"/>
  </g>
  <g style="" transform="matrix(0.311951, 0.000467, -0.000493, 0.329473, 11.367499, 81.762978)">
    <path style="opacity:1" fill="#d93e38" d="M 227.5,278.5 C 228.167,281.5 228.833,284.5 229.5,287.5C 231.833,290.167 234.167,290.167 236.5,287.5C 236.586,288.496 236.252,289.329 235.5,290C 233.19,290.497 230.857,290.663 228.5,290.5C 228.5,291.833 228.5,293.167 228.5,294.5C 225.833,294.5 223.167,294.5 220.5,294.5C 220.216,296.415 220.549,298.081 221.5,299.5C 221.158,300.338 220.492,300.672 219.5,300.5C 219.5,297.833 219.5,295.167 219.5,292.5C 221.857,292.663 224.19,292.497 226.5,292C 227.337,290.989 227.67,289.822 227.5,288.5C 226.481,285.206 226.481,281.872 227.5,278.5 Z"/>
  </g>
  <g style="" transform="matrix(0.311951, 0.000467, -0.000493, 0.329473, 11.367499, 81.762978)">
    <path style="opacity:1" fill="#4c4d3e" d="M 165.5,281.5 C 165.833,281.5 166.167,281.5 166.5,281.5C 166.062,283.126 165.728,284.793 165.5,286.5C 165.547,289.239 166.547,289.905 168.5,288.5C 168.055,293.101 168.722,297.435 170.5,301.5C 169.167,301.5 167.833,301.5 166.5,301.5C 164.998,297.937 163.998,294.27 163.5,290.5C 163.065,287.162 163.732,284.162 165.5,281.5 Z"/>
  </g>
  <g style="" transform="matrix(0.311951, 0.000467, -0.000493, 0.329473, 11.367499, 81.762978)">
    <path style="opacity:1" fill="#4f4e3f" d="M 226.5,288.5 C 226.833,288.5 227.167,288.5 227.5,288.5C 227.67,289.822 227.337,290.989 226.5,292C 224.19,292.497 221.857,292.663 219.5,292.5C 219.5,295.167 219.5,297.833 219.5,300.5C 218.432,301.434 217.099,301.768 215.5,301.5C 215.5,300.833 215.5,300.167 215.5,299.5C 216.15,299.804 216.817,300.137 217.5,300.5C 218.487,297.232 218.82,293.898 218.5,290.5C 221.698,291.036 224.365,290.369 226.5,288.5 Z"/>
  </g>
  <g style="" transform="matrix(0.311951, 0.000467, -0.000493, 0.329473, 11.367499, 81.762978)">
    <path style="opacity:1" fill="#ee3737" d="M 163.5,290.5 C 163.813,294.042 163.479,297.375 162.5,300.5C 162.5,299.833 162.167,299.5 161.5,299.5C 161.167,298.5 160.5,297.833 159.5,297.5C 158.105,295.7 156.439,295.366 154.5,296.5C 154.709,297.086 155.043,297.586 155.5,298C 153.874,297.805 152.207,297.805 150.5,298C 149.264,299.388 147.931,300.554 146.5,301.5C 146.5,301.167 146.5,300.833 146.5,300.5C 145.686,295.881 145.353,291.214 145.5,286.5C 146.222,286.082 146.722,285.416 147,284.5C 151.079,285.629 155.245,285.796 159.5,285C 160,284.5 160.5,284 161,283.5C 161.333,285.5 161.667,287.5 162,289.5C 162.383,290.056 162.883,290.389 163.5,290.5 Z"/>
  </g>
  <g style="" transform="matrix(0.311951, 0.000467, -0.000493, 0.329473, 11.367499, 81.762978)">
    <path style="opacity:1" fill="#ea3a39" d="M 178.5,278.5 C 179.9,279.1 180.9,280.1 181.5,281.5C 185.684,284.177 188.517,287.843 190,292.5C 192.127,294.114 193.627,296.114 194.5,298.5C 194.5,299.5 194.5,300.5 194.5,301.5C 192.833,301.5 191.167,301.5 189.5,301.5C 187.973,301.573 186.973,300.906 186.5,299.5C 183.204,297.426 179.537,296.093 175.5,295.5C 174.769,297.401 174.769,299.401 175.5,301.5C 174.081,302.451 172.415,302.784 170.5,302.5C 170.5,302.167 170.5,301.833 170.5,301.5C 168.722,297.435 168.055,293.101 168.5,288.5C 168.5,288.167 168.5,287.833 168.5,287.5C 170.389,286.396 172.055,285.063 173.5,283.5C 174.833,281.5 176.5,279.833 178.5,278.5 Z"/>
  </g>
  <g style="" transform="matrix(0.311951, 0.000467, -0.000493, 0.329473, 11.367499, 81.762978)">
    <path style="opacity:1" fill="#e83c3a" d="M 211.5,282.5 C 211.833,283.167 212.167,283.833 212.5,284.5C 211.817,286.176 210.483,286.843 208.5,286.5C 208.077,288.781 208.744,290.448 210.5,291.5C 210.5,292.167 210.833,292.5 211.5,292.5C 212.209,293.404 213.209,293.737 214.5,293.5C 214.5,296.167 214.5,298.833 214.5,301.5C 213.5,301.5 212.5,301.5 211.5,301.5C 210.508,301.672 209.842,301.338 209.5,300.5C 209.213,298.879 208.213,297.879 206.5,297.5C 205.438,298.425 205.438,299.425 206.5,300.5C 204.545,303.133 202.545,303.133 200.5,300.5C 198.5,298.329 196.666,295.996 195,293.5C 194.204,290.961 194.371,288.628 195.5,286.5C 197.048,286.179 197.715,285.179 197.5,283.5C 201.371,283.815 205.038,283.482 208.5,282.5C 209.5,281.167 210.5,281.167 211.5,282.5 Z"/>
  </g>
  <g style="" transform="matrix(0.311951, 0.000467, -0.000493, 0.329473, 11.367499, 81.762978)">
    <path style="opacity:1" fill="#ee393a" d="M 237.5,286.5 C 237.833,286.5 238.167,286.5 238.5,286.5C 247.114,286.473 255.78,286.806 264.5,287.5C 264.5,291.833 264.5,296.167 264.5,300.5C 264.5,301.167 264.167,301.5 263.5,301.5C 261.127,298.854 258.794,298.854 256.5,301.5C 256.167,301.5 255.833,301.5 255.5,301.5C 253.334,301.421 251.334,300.754 249.5,299.5C 247.962,299.453 246.962,300.12 246.5,301.5C 244.585,301.784 242.919,301.451 241.5,300.5C 240.909,299.849 240.243,299.182 239.5,298.5C 240.5,297.833 241.5,297.167 242.5,296.5C 241.833,296.167 241.167,295.833 240.5,295.5C 237.874,295.622 235.874,296.622 234.5,298.5C 230.205,300.054 225.872,300.387 221.5,299.5C 220.549,298.081 220.216,296.415 220.5,294.5C 223.167,294.5 225.833,294.5 228.5,294.5C 228.5,293.167 228.5,291.833 228.5,290.5C 230.857,290.663 233.19,290.497 235.5,290C 236.252,289.329 236.586,288.496 236.5,287.5C 236.5,286.833 236.833,286.5 237.5,286.5 Z"/>
  </g>
  <g style="" transform="matrix(0.311951, 0.000467, -0.000493, 0.329473, 11.367499, 81.762978)">
    <path style="opacity:1" fill="#f1bebb" d="M 267.5,274.5 C 268.165,277.649 268.498,280.982 268.5,284.5C 268.486,288.239 267.82,291.572 266.5,294.5C 267.38,287.877 267.713,281.211 267.5,274.5 Z"/>
  </g>
  <g style="" transform="matrix(0.311951, 0.000467, -0.000493, 0.329473, 11.367499, 81.762978)">
    <path style="opacity:1" fill="#8a433c" d="M 211.5,292.5 C 212.833,292.5 214.167,292.5 215.5,292.5C 215.5,294.833 215.5,297.167 215.5,299.5C 215.5,300.167 215.5,300.833 215.5,301.5C 215.167,301.5 214.833,301.5 214.5,301.5C 214.5,298.833 214.5,296.167 214.5,293.5C 213.209,293.737 212.209,293.404 211.5,292.5 Z"/>
  </g>
  <g style="" transform="matrix(0.311951, 0.000467, -0.000493, 0.329473, 11.367499, 81.762978)">
    <path style="opacity:1" fill="#f49597" d="M 159.5,297.5 C 160.5,297.833 161.167,298.5 161.5,299.5C 160.596,300.209 160.263,301.209 160.5,302.5C 159.209,302.737 158.209,302.404 157.5,301.5C 159.977,300.88 159.977,299.88 157.5,298.5C 157.957,297.702 158.624,297.369 159.5,297.5 Z"/>
  </g>
  <g style="" transform="matrix(0.311951, 0.000467, -0.000493, 0.329473, 11.367499, 81.762978)">
    <path style="opacity:1" fill="#b34843" d="M 163.5,290.5 C 163.998,294.27 164.998,297.937 166.5,301.5C 166.565,301.938 166.399,302.272 166,302.5C 164.698,301.915 163.531,301.249 162.5,300.5C 163.479,297.375 163.813,294.042 163.5,290.5 Z"/>
  </g>
  <g style="" transform="matrix(0.311951, 0.000467, -0.000493, 0.329473, 11.367499, 81.762978)">
    <path style="opacity:1" fill="#f0585a" d="M 159.5,297.5 C 158.624,297.369 157.957,297.702 157.5,298.5C 159.977,299.88 159.977,300.88 157.5,301.5C 155.956,301.297 154.622,300.63 153.5,299.5C 151.362,301.782 149.029,302.449 146.5,301.5C 147.931,300.554 149.264,299.388 150.5,298C 152.207,297.805 153.874,297.805 155.5,298C 155.043,297.586 154.709,297.086 154.5,296.5C 156.439,295.366 158.105,295.7 159.5,297.5 Z"/>
  </g>
  <g style="" transform="matrix(0.311951, 0.000467, -0.000493, 0.329473, 11.367499, 81.762978)">
    <path style="opacity:1" fill="#f26b6e" d="M 186.5,299.5 C 185.265,299.721 184.265,300.388 183.5,301.5C 181.585,299.528 179.251,298.528 176.5,298.5C 176.737,299.791 176.404,300.791 175.5,301.5C 174.769,299.401 174.769,297.401 175.5,295.5C 179.537,296.093 183.204,297.426 186.5,299.5 Z"/>
  </g>
  <g style="" transform="matrix(0.311951, 0.000467, -0.000493, 0.329473, 11.367499, 81.762978)">
    <path style="opacity:1" fill="#f37e80" d="M 209.5,300.5 C 208.5,299.167 207.5,299.167 206.5,300.5C 205.438,299.425 205.438,298.425 206.5,297.5C 208.213,297.879 209.213,298.879 209.5,300.5 Z"/>
  </g>
  <g style="" transform="matrix(0.311951, 0.000467, -0.000493, 0.329473, 11.367499, 81.762978)">
    <path style="opacity:1" fill="#f39395" d="M 241.5,300.5 C 240.07,300.421 238.736,300.754 237.5,301.5C 237.167,301.167 236.833,300.833 236.5,300.5C 238.805,297.789 238.138,297.122 234.5,298.5C 235.874,296.622 237.874,295.622 240.5,295.5C 241.167,295.833 241.833,296.167 242.5,296.5C 241.5,297.167 240.5,297.833 239.5,298.5C 240.243,299.182 240.909,299.849 241.5,300.5 Z"/>
  </g>
  <g style="" transform="matrix(0.311951, 0.000467, -0.000493, 0.329473, 11.367499, 81.762978)">
    <path style="opacity:1" fill="#f2c3c4" d="M 186.5,299.5 C 186.973,300.906 187.973,301.573 189.5,301.5C 191.607,302.468 193.941,302.802 196.5,302.5C 187.641,303.404 178.975,303.404 170.5,302.5C 172.415,302.784 174.081,302.451 175.5,301.5C 176.404,300.791 176.737,299.791 176.5,298.5C 179.251,298.528 181.585,299.528 183.5,301.5C 184.265,300.388 185.265,299.721 186.5,299.5 Z"/>
  </g>
  <g style="" transform="matrix(0.311951, 0.000467, -0.000493, 0.329473, 11.367499, 81.762978)">
    <path style="opacity:1" fill="#cc6665" d="M 194.5,298.5 C 195.401,299.29 196.068,300.29 196.5,301.5C 196.5,301.833 196.5,302.167 196.5,302.5C 193.941,302.802 191.607,302.468 189.5,301.5C 191.167,301.5 192.833,301.5 194.5,301.5C 194.5,300.5 194.5,299.5 194.5,298.5 Z"/>
  </g>
  <g style="" transform="matrix(0.311951, 0.000467, -0.000493, 0.329473, 11.367499, 81.762978)">
    <path style="opacity:1" fill="#f4b8b8" d="M 263.5,301.5 C 263.38,302.586 262.713,303.253 261.5,303.5C 259.823,302.813 258.156,302.146 256.5,301.5C 258.794,298.854 261.127,298.854 263.5,301.5 Z"/>
  </g>
  <g style="" transform="matrix(0.311951, 0.000467, -0.000493, 0.329473, 11.367499, 81.762978)">
    <path style="opacity:1" fill="#f3abac" d="M 255.5,301.5 C 254.866,302.947 253.699,303.613 252,303.5C 250.061,303.046 248.228,302.379 246.5,301.5C 246.962,300.12 247.962,299.453 249.5,299.5C 251.334,300.754 253.334,301.421 255.5,301.5 Z"/>
  </g>
  <g style="" transform="matrix(0.311951, 0.000467, -0.000493, 0.329473, 11.367499, 81.762978)">
    <path style="opacity:1" fill="#e9e1e2" d="M 241.5,300.5 C 242.919,301.451 244.585,301.784 246.5,301.5C 248.228,302.379 250.061,303.046 252,303.5C 253.699,303.613 254.866,302.947 255.5,301.5C 255.833,301.5 256.167,301.5 256.5,301.5C 258.156,302.146 259.823,302.813 261.5,303.5C 262.713,303.253 263.38,302.586 263.5,301.5C 264.167,301.5 264.5,301.167 264.5,300.5C 264.833,300.5 265.167,300.5 265.5,300.5C 265.461,301.583 265.127,302.583 264.5,303.5C 296.493,304.5 328.493,304.833 360.5,304.5C 360.5,304.833 360.5,305.167 360.5,305.5C 360.167,305.5 359.833,305.5 359.5,305.5C 286.167,305.5 212.833,305.5 139.5,305.5C 139.5,305.167 139.5,304.833 139.5,304.5C 141.5,304.5 143.5,304.5 145.5,304.5C 145.5,303.167 145.5,301.833 145.5,300.5C 145.833,300.5 146.167,300.5 146.5,300.5C 146.5,300.833 146.5,301.167 146.5,301.5C 149.029,302.449 151.362,301.782 153.5,299.5C 154.622,300.63 155.956,301.297 157.5,301.5C 158.209,302.404 159.209,302.737 160.5,302.5C 160.263,301.209 160.596,300.209 161.5,299.5C 162.167,299.5 162.5,299.833 162.5,300.5C 163.531,301.249 164.698,301.915 166,302.5C 166.399,302.272 166.565,301.938 166.5,301.5C 167.833,301.5 169.167,301.5 170.5,301.5C 170.5,301.833 170.5,302.167 170.5,302.5C 178.975,303.404 187.641,303.404 196.5,302.5C 196.5,302.167 196.5,301.833 196.5,301.5C 198.099,301.768 199.432,301.434 200.5,300.5C 202.545,303.133 204.545,303.133 206.5,300.5C 207.5,299.167 208.5,299.167 209.5,300.5C 209.842,301.338 210.508,301.672 211.5,301.5C 211.62,302.586 212.287,303.253 213.5,303.5C 214.713,303.253 215.38,302.586 215.5,301.5C 217.099,301.768 218.432,301.434 219.5,300.5C 220.492,300.672 221.158,300.338 221.5,299.5C 225.872,300.387 230.205,300.054 234.5,298.5C 238.138,297.122 238.805,297.789 236.5,300.5C 236.833,300.833 237.167,301.167 237.5,301.5C 238.736,300.754 240.07,300.421 241.5,300.5 Z"/>
  </g>
  <g style="" transform="matrix(0.311951, 0.000467, -0.000493, 0.329473, 11.367499, 81.762978)">
    <path style="opacity:1" fill="#efa4a4" d="M 211.5,301.5 C 212.5,301.5 213.5,301.5 214.5,301.5C 214.833,301.5 215.167,301.5 215.5,301.5C 215.38,302.586 214.713,303.253 213.5,303.5C 212.287,303.253 211.62,302.586 211.5,301.5 Z"/>
  </g>
  <g style="" transform="matrix(0.311951, 0.000467, -0.000493, 0.329473, 11.367499, 81.762978)">
    <path style="opacity:1" fill="#c3c6c8" d="M 39.5,305.5 C 33.2507,315.248 30.2507,325.915 30.5,337.5C 33.1667,337.5 35.8333,337.5 38.5,337.5C 38.5,337.833 38.5,338.167 38.5,338.5C 28.767,338.891 19.1003,338.391 9.5,337C 4.55732,334.894 1.22399,331.394 -0.5,326.5C -0.5,319.5 -0.5,312.5 -0.5,305.5C 8.36596,306.097 17.0326,305.43 25.5,303.5C 26.6956,303.846 26.6956,304.346 25.5,305C 30.1548,305.499 34.8215,305.666 39.5,305.5 Z"/>
  </g>
  <g style="" transform="matrix(0.311951, 0.000467, -0.000493, 0.329473, 11.367499, 81.762978)">
    <path style="opacity:1" fill="#b3b5b7" d="M 39.5,305.5 C 39.8333,305.5 40.1667,305.5 40.5,305.5C 43.5,305.5 46.5,305.5 49.5,305.5C 42.4428,314.959 38.7761,325.626 38.5,337.5C 35.8333,337.5 33.1667,337.5 30.5,337.5C 30.2507,325.915 33.2507,315.248 39.5,305.5 Z"/>
  </g>
  <g style="" transform="matrix(0.311951, 0.000467, -0.000493, 0.329473, 11.367499, 81.762978)">
    <path style="opacity:1" fill="#b3b5b7" d="M 129.5,305.5 C 132.833,305.5 136.167,305.5 139.5,305.5C 145.779,315.217 148.779,325.883 148.5,337.5C 145.941,337.198 143.607,337.532 141.5,338.5C 140.694,326.421 136.694,315.421 129.5,305.5 Z"/>
  </g>
  <g style="" transform="matrix(0.311951, 0.000467, -0.000493, 0.329473, 11.367499, 81.762978)">
    <path style="opacity:1" fill="#c3c6c8" d="M 139.5,305.5 C 212.833,305.5 286.167,305.5 359.5,305.5C 354.319,315.559 351.319,326.226 350.5,337.5C 353.385,337.194 356.052,337.527 358.5,338.5C 286.167,338.5 213.833,338.5 141.5,338.5C 143.607,337.532 145.941,337.198 148.5,337.5C 148.779,325.883 145.779,315.217 139.5,305.5 Z"/>
  </g>
  <g style="" transform="matrix(0.311951, 0.000467, -0.000493, 0.329473, 11.367499, 81.762978)">
    <path style="opacity:1" fill="#b2b4b6" d="M 359.5,305.5 C 359.833,305.5 360.167,305.5 360.5,305.5C 363.833,305.5 367.167,305.5 370.5,305.5C 362.906,315.29 358.906,326.29 358.5,338.5C 356.052,337.527 353.385,337.194 350.5,337.5C 351.319,326.226 354.319,315.559 359.5,305.5 Z"/>
  </g>
  <g style="" transform="matrix(0.311951, 0.000467, -0.000493, 0.329473, 11.367499, 81.762978)">
    <path style="opacity:1" fill="#b3b5b7" d="M 450.5,305.5 C 453.5,305.5 456.5,305.5 459.5,305.5C 459.833,305.5 460.167,305.5 460.5,305.5C 466.604,315.245 469.604,325.912 469.5,337.5C 466.833,337.5 464.167,337.5 461.5,337.5C 461.006,325.683 457.339,315.017 450.5,305.5 Z"/>
  </g>
  <g style="" transform="matrix(0.311951, 0.000467, -0.000493, 0.329473, 11.367499, 81.762978)">
    <path style="opacity:1" fill="#c3c6c8" d="M 460.5,305.5 C 465.833,305.5 471.167,305.5 476.5,305.5C 488.167,305.5 499.833,305.5 511.5,305.5C 511.5,312.5 511.5,319.5 511.5,326.5C 509.083,332.899 504.417,336.732 497.5,338C 485.505,338.5 473.505,338.667 461.5,338.5C 461.5,338.167 461.5,337.833 461.5,337.5C 464.167,337.5 466.833,337.5 469.5,337.5C 469.604,325.912 466.604,315.245 460.5,305.5 Z"/>
  </g>
  <g style="" transform="matrix(0.311951, 0.000467, -0.000493, 0.329473, 11.367499, 81.762978)">
    <path style="opacity:1" fill="#c1c4c6" d="M 82.5,315.5 C 99.649,313.337 109.649,320.671 112.5,337.5C 110.271,354.56 100.604,362.06 83.5,360C 68.8058,353.588 63.9724,342.755 69,327.5C 72.4543,322.206 76.9543,318.206 82.5,315.5 Z"/>
  </g>
  <g style="" transform="matrix(0.311951, 0.000467, -0.000493, 0.329473, 11.367499, 81.762978)">
    <path style="opacity:1" fill="#c1c4c6" d="M 403.5,315.5 C 416.891,313.278 426.391,318.278 432,330.5C 434.484,351.346 425.317,361.18 404.5,360C 391.134,355.106 385.634,345.606 388,331.5C 390.711,323.624 395.878,318.291 403.5,315.5 Z"/>
  </g>
</svg>